<?xml version="1.0" ?><svg xmlns="http://www.w3.org/2000/svg" width="24" height="24" viewBox="0 0 24 24" fill="none"><g clip-path="url(#clip0_1651_3976)"><path fill-rule="evenodd" clip-rule="evenodd" d="M12 0.855957L23.0592 6.99992L18.5592 9.49992L23.0592 11.9999L18.5592 14.4999L23.0592 16.9999L12 23.1439L0.940918 16.9999L5.44092 14.4999L0.940918 11.9999L5.44092 9.49992L0.940918 6.99992L12 0.855957ZM7.50004 10.6439L5.05917 11.9999L12 15.856L18.9409 11.9999L16.5 10.6439L12 13.1439L7.50004 10.6439ZM7.50004 15.6439L5.05917 16.9999L12 20.856L18.9409 16.9999L16.5 15.6439L12 18.1439L7.50004 15.6439ZM5.05917 6.99992L12 10.856L18.9409 6.99992L12 3.14388L5.05917 6.99992Z" fill="black"/></g><defs><clipPath id="clip0_1651_3976"><rect width="24" height="24" fill="white"/></clipPath></defs></svg>