<?xml version="1.0" ?><svg xmlns="http://www.w3.org/2000/svg" width="24" height="24" viewBox="0 0 24 24" fill="none"><path fill-rule="evenodd" clip-rule="evenodd" d="M19 0.585693L23.4142 4.99991L19.2077 9.20638C19.2075 9.20659 19.208 9.20617 19.2077 9.20638C19.2075 9.20659 19.2067 9.20744 19.2065 9.20765L5.41421 22.9999H1L1 18.5857L14.7924 4.7933C14.7922 4.79347 14.7926 4.79313 14.7924 4.7933C14.7926 4.79313 14.7932 4.79247 14.7934 4.7923L19 0.585693ZM15.5 6.91412L3 19.4141L3 20.9999H4.58579L17.0858 8.49991L15.5 6.91412ZM18.5 7.08569L16.9142 5.49991L19 3.41412L20.5858 4.99991L18.5 7.08569Z" fill="black"/></svg>